<mxfile host="app.diagrams.net" modified="2022-06-24T09:23:01.009Z" agent="5.0 (Macintosh; Intel Mac OS X 10_15_7) AppleWebKit/537.36 (KHTML, like Gecko) Chrome/103.0.0.0 Safari/537.36" etag="tt3F7DE40mZ0iNq3dT2_" version="17.4.6" type="github">
  <diagram id="E6UDTMIK5SfPo9EAQP29" name="Page-1">
    <mxGraphModel dx="3911" dy="2470" grid="1" gridSize="10" guides="1" tooltips="1" connect="1" arrows="1" fold="1" page="1" pageScale="1" pageWidth="1169" pageHeight="826" math="0" shadow="0">
      <root>
        <mxCell id="0" />
        <mxCell id="1" parent="0" />
        <mxCell id="xRANGXOFlQ8uoqTKwq2T-1" value="" style="ellipse;html=1;shape=startState;fillColor=#000000;strokeColor=#ff0000;" parent="1" vertex="1">
          <mxGeometry x="410" y="-636" width="30" height="30" as="geometry" />
        </mxCell>
        <mxCell id="xRANGXOFlQ8uoqTKwq2T-8" value="" style="edgeStyle=orthogonalEdgeStyle;rounded=0;orthogonalLoop=1;jettySize=auto;html=1;" parent="1" target="xRANGXOFlQ8uoqTKwq2T-7" edge="1">
          <mxGeometry relative="1" as="geometry">
            <mxPoint x="430" y="-613" as="sourcePoint" />
          </mxGeometry>
        </mxCell>
        <mxCell id="ouW_fzpy-MnYri31NkzG-12" style="edgeStyle=orthogonalEdgeStyle;rounded=0;orthogonalLoop=1;jettySize=auto;html=1;entryX=0.5;entryY=0;entryDx=0;entryDy=0;" parent="1" target="ouW_fzpy-MnYri31NkzG-9" edge="1">
          <mxGeometry relative="1" as="geometry">
            <mxPoint x="430" y="-310" as="targetPoint" />
            <mxPoint x="430" y="-410" as="sourcePoint" />
          </mxGeometry>
        </mxCell>
        <mxCell id="xRANGXOFlQ8uoqTKwq2T-7" value="配置成功(S_config_finished)" style="html=1;" parent="1" vertex="1">
          <mxGeometry x="375" y="-463" width="110" height="50" as="geometry" />
        </mxCell>
        <mxCell id="xRANGXOFlQ8uoqTKwq2T-9" value="应用元数据创建成功(S_collection_metadata_succeed)" style="html=1;" parent="1" vertex="1">
          <mxGeometry x="660" y="965" width="110" height="50" as="geometry" />
        </mxCell>
        <mxCell id="ouW_fzpy-MnYri31NkzG-60" style="edgeStyle=orthogonalEdgeStyle;rounded=0;orthogonalLoop=1;jettySize=auto;html=1;entryX=1;entryY=0.5;entryDx=0;entryDy=0;" parent="1" source="xRANGXOFlQ8uoqTKwq2T-11" target="ouW_fzpy-MnYri31NkzG-50" edge="1">
          <mxGeometry relative="1" as="geometry">
            <Array as="points">
              <mxPoint x="1270" y="1070" />
              <mxPoint x="1270" y="750" />
              <mxPoint x="1065" y="750" />
              <mxPoint x="1065" y="655" />
            </Array>
          </mxGeometry>
        </mxCell>
        <mxCell id="xRANGXOFlQ8uoqTKwq2T-11" value="应用元数据创建失败(S_collection_metadata_failed)" style="html=1;" parent="1" vertex="1">
          <mxGeometry x="1062.75" y="1039" width="110" height="50" as="geometry" />
        </mxCell>
        <mxCell id="pfTwy-6_xwasAA1-WFlj-40" value="&lt;font color=&quot;#ff0000&quot;&gt;用户配置schema信息,全量信息&lt;/font&gt;" style="text;html=1;align=center;verticalAlign=middle;resizable=0;points=[];autosize=1;" parent="1" vertex="1">
          <mxGeometry x="350" y="-563" width="180" height="20" as="geometry" />
        </mxCell>
        <mxCell id="pfTwy-6_xwasAA1-WFlj-41" value="&lt;br&gt;&amp;nbsp; &amp;nbsp; &amp;nbsp; &amp;nbsp; &amp;nbsp; &amp;nbsp; &amp;nbsp;执行操作:上传solr配置文件,创建collection失败" style="text;html=1;align=center;verticalAlign=middle;resizable=0;points=[];autosize=1;" parent="1" vertex="1">
          <mxGeometry x="942.75" y="780" width="300" height="30" as="geometry" />
        </mxCell>
        <mxCell id="pfTwy-6_xwasAA1-WFlj-42" value="&lt;br&gt;&lt;span style=&quot;color: rgb(255 , 0 , 0)&quot;&gt;&lt;br&gt;&lt;/span&gt;上传solr配置文件或者创建collection成功" style="text;html=1;align=center;verticalAlign=middle;resizable=0;points=[];autosize=1;" parent="1" vertex="1">
          <mxGeometry x="610" y="870" width="230" height="50" as="geometry" />
        </mxCell>
        <mxCell id="pfTwy-6_xwasAA1-WFlj-80" value="&lt;font color=&quot;#ff0000&quot;&gt;E_&lt;/font&gt;&lt;span style=&quot;color: rgb(255 , 0 , 0)&quot;&gt;recreate&lt;/span&gt;&lt;font color=&quot;#ff0000&quot;&gt;&lt;br&gt;collection_metadata&lt;br&gt;&lt;/font&gt;执行操作:上传solr配置文件,创建collection失败&lt;font color=&quot;#ff0000&quot;&gt;&lt;br&gt;&lt;/font&gt;" style="text;html=1;align=center;verticalAlign=middle;resizable=0;points=[];autosize=1;" parent="1" vertex="1">
          <mxGeometry x="1092.25" y="690" width="260" height="50" as="geometry" />
        </mxCell>
        <mxCell id="ouW_fzpy-MnYri31NkzG-7" style="edgeStyle=orthogonalEdgeStyle;rounded=0;orthogonalLoop=1;jettySize=auto;html=1;entryX=1;entryY=0.5;entryDx=0;entryDy=0;" parent="1" source="ouW_fzpy-MnYri31NkzG-1" target="ouW_fzpy-MnYri31NkzG-8" edge="1">
          <mxGeometry relative="1" as="geometry">
            <mxPoint x="240" y="-20" as="targetPoint" />
          </mxGeometry>
        </mxCell>
        <mxCell id="AyKXmRIpo1uoxJqNCRqN-19" style="edgeStyle=orthogonalEdgeStyle;rounded=0;orthogonalLoop=1;jettySize=auto;html=1;entryX=0.5;entryY=0;entryDx=0;entryDy=0;" parent="1" source="ouW_fzpy-MnYri31NkzG-1" target="ouW_fzpy-MnYri31NkzG-79" edge="1">
          <mxGeometry relative="1" as="geometry" />
        </mxCell>
        <mxCell id="ouW_fzpy-MnYri31NkzG-1" value="是否dts?" style="rhombus;whiteSpace=wrap;html=1;" parent="1" vertex="1">
          <mxGeometry x="389" y="-140" width="80" height="80" as="geometry" />
        </mxCell>
        <mxCell id="ouW_fzpy-MnYri31NkzG-16" style="edgeStyle=orthogonalEdgeStyle;rounded=0;orthogonalLoop=1;jettySize=auto;html=1;entryX=0.5;entryY=0;entryDx=0;entryDy=0;" parent="1" source="ouW_fzpy-MnYri31NkzG-8" edge="1">
          <mxGeometry relative="1" as="geometry">
            <mxPoint x="-8" y="-5" as="targetPoint" />
          </mxGeometry>
        </mxCell>
        <mxCell id="ouW_fzpy-MnYri31NkzG-8" value="部署增量dts中(S_dts_delta_deploying)" style="html=1;" parent="1" vertex="1">
          <mxGeometry x="-63" y="-125" width="110" height="50" as="geometry" />
        </mxCell>
        <mxCell id="AyKXmRIpo1uoxJqNCRqN-18" style="edgeStyle=orthogonalEdgeStyle;rounded=0;orthogonalLoop=1;jettySize=auto;html=1;entryX=0.5;entryY=0;entryDx=0;entryDy=0;" parent="1" source="ouW_fzpy-MnYri31NkzG-9" target="ouW_fzpy-MnYri31NkzG-1" edge="1">
          <mxGeometry relative="1" as="geometry" />
        </mxCell>
        <mxCell id="ouW_fzpy-MnYri31NkzG-9" value="激活中(S_activating)" style="html=1;" parent="1" vertex="1">
          <mxGeometry x="375" y="-300" width="110" height="50" as="geometry" />
        </mxCell>
        <mxCell id="ouW_fzpy-MnYri31NkzG-13" value="&lt;font color=&quot;#ff0000&quot;&gt;E-activate&lt;/font&gt;" style="text;html=1;align=center;verticalAlign=middle;resizable=0;points=[];autosize=1;" parent="1" vertex="1">
          <mxGeometry x="445.5" y="-360" width="70" height="20" as="geometry" />
        </mxCell>
        <mxCell id="ouW_fzpy-MnYri31NkzG-21" value="" style="edgeStyle=orthogonalEdgeStyle;rounded=0;orthogonalLoop=1;jettySize=auto;html=1;" parent="1" source="ouW_fzpy-MnYri31NkzG-19" target="ouW_fzpy-MnYri31NkzG-20" edge="1">
          <mxGeometry relative="1" as="geometry" />
        </mxCell>
        <mxCell id="ouW_fzpy-MnYri31NkzG-24" value="" style="edgeStyle=orthogonalEdgeStyle;rounded=0;orthogonalLoop=1;jettySize=auto;html=1;" parent="1" source="ouW_fzpy-MnYri31NkzG-19" target="ouW_fzpy-MnYri31NkzG-23" edge="1">
          <mxGeometry relative="1" as="geometry" />
        </mxCell>
        <mxCell id="ouW_fzpy-MnYri31NkzG-19" value="是否成功?" style="rhombus;whiteSpace=wrap;html=1;" parent="1" vertex="1">
          <mxGeometry x="-48" y="-5" width="80" height="80" as="geometry" />
        </mxCell>
        <mxCell id="ouW_fzpy-MnYri31NkzG-27" value="" style="edgeStyle=orthogonalEdgeStyle;rounded=0;orthogonalLoop=1;jettySize=auto;html=1;" parent="1" source="ouW_fzpy-MnYri31NkzG-20" target="ouW_fzpy-MnYri31NkzG-26" edge="1">
          <mxGeometry relative="1" as="geometry" />
        </mxCell>
        <mxCell id="ouW_fzpy-MnYri31NkzG-20" value="&lt;span&gt;增量dts部署成功(S_dts_delta_deployed_success)&lt;/span&gt;" style="whiteSpace=wrap;html=1;" parent="1" vertex="1">
          <mxGeometry x="-228" y="5" width="120" height="60" as="geometry" />
        </mxCell>
        <mxCell id="ouW_fzpy-MnYri31NkzG-29" style="edgeStyle=orthogonalEdgeStyle;rounded=0;orthogonalLoop=1;jettySize=auto;html=1;entryX=0.5;entryY=0;entryDx=0;entryDy=0;" parent="1" source="ouW_fzpy-MnYri31NkzG-23" target="ouW_fzpy-MnYri31NkzG-8" edge="1">
          <mxGeometry relative="1" as="geometry">
            <Array as="points">
              <mxPoint x="157" y="-200" />
              <mxPoint x="-8" y="-200" />
            </Array>
          </mxGeometry>
        </mxCell>
        <mxCell id="ouW_fzpy-MnYri31NkzG-23" value="增量dts部署失败(S_dts_delta_deployed_fail)" style="whiteSpace=wrap;html=1;" parent="1" vertex="1">
          <mxGeometry x="92" y="5" width="120" height="60" as="geometry" />
        </mxCell>
        <mxCell id="ouW_fzpy-MnYri31NkzG-32" value="" style="edgeStyle=orthogonalEdgeStyle;rounded=0;orthogonalLoop=1;jettySize=auto;html=1;" parent="1" source="ouW_fzpy-MnYri31NkzG-26" target="ouW_fzpy-MnYri31NkzG-31" edge="1">
          <mxGeometry relative="1" as="geometry">
            <Array as="points">
              <mxPoint x="-168" y="250" />
              <mxPoint x="-168" y="250" />
            </Array>
          </mxGeometry>
        </mxCell>
        <mxCell id="ouW_fzpy-MnYri31NkzG-26" value="部署全量dts中(S_dts_full_deploying)" style="whiteSpace=wrap;html=1;" parent="1" vertex="1">
          <mxGeometry x="-228" y="145" width="120" height="60" as="geometry" />
        </mxCell>
        <mxCell id="ouW_fzpy-MnYri31NkzG-30" value="&lt;font color=&quot;#ff0000&quot;&gt;E_&lt;/font&gt;&lt;span style=&quot;color: rgb(255 , 0 , 0)&quot;&gt;redeploy_&lt;/span&gt;&lt;font color=&quot;#ff0000&quot;&gt;&lt;br&gt;dts_delta&lt;/font&gt;" style="text;html=1;align=center;verticalAlign=middle;resizable=0;points=[];autosize=1;" parent="1" vertex="1">
          <mxGeometry x="27" y="-250" width="80" height="30" as="geometry" />
        </mxCell>
        <mxCell id="ouW_fzpy-MnYri31NkzG-35" value="" style="edgeStyle=orthogonalEdgeStyle;rounded=0;orthogonalLoop=1;jettySize=auto;html=1;" parent="1" source="ouW_fzpy-MnYri31NkzG-31" target="ouW_fzpy-MnYri31NkzG-34" edge="1">
          <mxGeometry relative="1" as="geometry" />
        </mxCell>
        <mxCell id="ouW_fzpy-MnYri31NkzG-42" value="" style="edgeStyle=orthogonalEdgeStyle;rounded=0;orthogonalLoop=1;jettySize=auto;html=1;" parent="1" source="ouW_fzpy-MnYri31NkzG-31" target="ouW_fzpy-MnYri31NkzG-41" edge="1">
          <mxGeometry relative="1" as="geometry" />
        </mxCell>
        <mxCell id="ouW_fzpy-MnYri31NkzG-31" value="是否成功?" style="rhombus;whiteSpace=wrap;html=1;" parent="1" vertex="1">
          <mxGeometry x="-208" y="270" width="80" height="80" as="geometry" />
        </mxCell>
        <mxCell id="ouW_fzpy-MnYri31NkzG-44" style="edgeStyle=orthogonalEdgeStyle;rounded=0;orthogonalLoop=1;jettySize=auto;html=1;entryX=0.75;entryY=0;entryDx=0;entryDy=0;" parent="1" source="ouW_fzpy-MnYri31NkzG-34" target="ouW_fzpy-MnYri31NkzG-26" edge="1">
          <mxGeometry relative="1" as="geometry">
            <Array as="points">
              <mxPoint x="-8" y="110" />
              <mxPoint x="-138" y="110" />
            </Array>
          </mxGeometry>
        </mxCell>
        <mxCell id="ouW_fzpy-MnYri31NkzG-34" value="&lt;span&gt;全量dts部署失败(S_dts_full_deployed_fail)&lt;/span&gt;" style="whiteSpace=wrap;html=1;" parent="1" vertex="1">
          <mxGeometry x="-68" y="280" width="120" height="60" as="geometry" />
        </mxCell>
        <mxCell id="ouW_fzpy-MnYri31NkzG-58" style="edgeStyle=orthogonalEdgeStyle;rounded=0;orthogonalLoop=1;jettySize=auto;html=1;" parent="1" source="ouW_fzpy-MnYri31NkzG-41" edge="1">
          <mxGeometry relative="1" as="geometry">
            <mxPoint x="540" y="-100" as="targetPoint" />
            <Array as="points">
              <mxPoint x="-330" y="380" />
              <mxPoint x="540" y="380" />
            </Array>
          </mxGeometry>
        </mxCell>
        <mxCell id="ouW_fzpy-MnYri31NkzG-41" value="&lt;span&gt;全量dts部署成功(S_dts_full_deployed_succeed)&lt;/span&gt;" style="whiteSpace=wrap;html=1;" parent="1" vertex="1">
          <mxGeometry x="-388" y="280" width="120" height="60" as="geometry" />
        </mxCell>
        <mxCell id="ouW_fzpy-MnYri31NkzG-45" value="&lt;font color=&quot;#ff0000&quot;&gt;E_redeploy_dts_full&lt;/font&gt;" style="text;html=1;align=center;verticalAlign=middle;resizable=0;points=[];autosize=1;" parent="1" vertex="1">
          <mxGeometry x="-93" y="125" width="120" height="20" as="geometry" />
        </mxCell>
        <mxCell id="ouW_fzpy-MnYri31NkzG-53" value="" style="edgeStyle=orthogonalEdgeStyle;rounded=0;orthogonalLoop=1;jettySize=auto;html=1;" parent="1" source="ouW_fzpy-MnYri31NkzG-50" target="ouW_fzpy-MnYri31NkzG-52" edge="1">
          <mxGeometry relative="1" as="geometry" />
        </mxCell>
        <mxCell id="ouW_fzpy-MnYri31NkzG-50" value="应用元数据创建中(S_collection_metadata_creating)" style="html=1;" parent="1" vertex="1">
          <mxGeometry x="787.25" y="630" width="110" height="50" as="geometry" />
        </mxCell>
        <mxCell id="ouW_fzpy-MnYri31NkzG-54" style="edgeStyle=orthogonalEdgeStyle;rounded=0;orthogonalLoop=1;jettySize=auto;html=1;entryX=0.5;entryY=0;entryDx=0;entryDy=0;" parent="1" source="ouW_fzpy-MnYri31NkzG-52" target="xRANGXOFlQ8uoqTKwq2T-11" edge="1">
          <mxGeometry relative="1" as="geometry">
            <mxPoint x="1251.75" y="1040" as="targetPoint" />
          </mxGeometry>
        </mxCell>
        <mxCell id="ouW_fzpy-MnYri31NkzG-55" style="edgeStyle=orthogonalEdgeStyle;rounded=0;orthogonalLoop=1;jettySize=auto;html=1;" parent="1" source="ouW_fzpy-MnYri31NkzG-52" target="xRANGXOFlQ8uoqTKwq2T-9" edge="1">
          <mxGeometry relative="1" as="geometry" />
        </mxCell>
        <mxCell id="ouW_fzpy-MnYri31NkzG-52" value="是否成功?" style="rhombus;whiteSpace=wrap;html=1;" parent="1" vertex="1">
          <mxGeometry x="802.25" y="780" width="80" height="80" as="geometry" />
        </mxCell>
        <mxCell id="ouW_fzpy-MnYri31NkzG-56" value="否" style="text;html=1;align=center;verticalAlign=middle;resizable=0;points=[];autosize=1;" parent="1" vertex="1">
          <mxGeometry x="916.75" y="770" width="30" height="20" as="geometry" />
        </mxCell>
        <mxCell id="ouW_fzpy-MnYri31NkzG-57" value="是" style="text;html=1;align=center;verticalAlign=middle;resizable=0;points=[];autosize=1;" parent="1" vertex="1">
          <mxGeometry x="796.75" y="900" width="30" height="20" as="geometry" />
        </mxCell>
        <mxCell id="ouW_fzpy-MnYri31NkzG-59" value="&lt;font color=&quot;#ff0000&quot;&gt;E_finish_dts&lt;/font&gt;" style="text;html=1;align=center;verticalAlign=middle;resizable=0;points=[];autosize=1;" parent="1" vertex="1">
          <mxGeometry x="197" y="403" width="80" height="20" as="geometry" />
        </mxCell>
        <mxCell id="ouW_fzpy-MnYri31NkzG-87" value="" style="edgeStyle=orthogonalEdgeStyle;rounded=0;orthogonalLoop=1;jettySize=auto;html=1;" parent="1" source="ouW_fzpy-MnYri31NkzG-79" target="ouW_fzpy-MnYri31NkzG-86" edge="1">
          <mxGeometry relative="1" as="geometry" />
        </mxCell>
        <mxCell id="ouW_fzpy-MnYri31NkzG-79" value="全量文件检查中(S_full_dump_finished_checking)" style="whiteSpace=wrap;html=1;" parent="1" vertex="1">
          <mxGeometry x="1102.75" y="25" width="120" height="60" as="geometry" />
        </mxCell>
        <mxCell id="ouW_fzpy-MnYri31NkzG-83" value="&lt;font color=&quot;#ff0000&quot;&gt;E_check_full_dump&lt;/font&gt;" style="text;html=1;align=center;verticalAlign=middle;resizable=0;points=[];autosize=1;" parent="1" vertex="1">
          <mxGeometry x="1122.25" y="-30" width="120" height="20" as="geometry" />
        </mxCell>
        <mxCell id="ouW_fzpy-MnYri31NkzG-89" value="" style="edgeStyle=orthogonalEdgeStyle;rounded=0;orthogonalLoop=1;jettySize=auto;html=1;" parent="1" source="ouW_fzpy-MnYri31NkzG-86" target="ouW_fzpy-MnYri31NkzG-88" edge="1">
          <mxGeometry relative="1" as="geometry" />
        </mxCell>
        <mxCell id="ouW_fzpy-MnYri31NkzG-91" value="" style="edgeStyle=orthogonalEdgeStyle;rounded=0;orthogonalLoop=1;jettySize=auto;html=1;" parent="1" source="ouW_fzpy-MnYri31NkzG-86" target="ouW_fzpy-MnYri31NkzG-90" edge="1">
          <mxGeometry relative="1" as="geometry" />
        </mxCell>
        <mxCell id="ouW_fzpy-MnYri31NkzG-86" value="是否成功?" style="rhombus;whiteSpace=wrap;html=1;" parent="1" vertex="1">
          <mxGeometry x="1122.75" y="155" width="80" height="80" as="geometry" />
        </mxCell>
        <mxCell id="ouW_fzpy-MnYri31NkzG-96" style="edgeStyle=orthogonalEdgeStyle;rounded=0;orthogonalLoop=1;jettySize=auto;html=1;entryX=1;entryY=0.5;entryDx=0;entryDy=0;" parent="1" source="ouW_fzpy-MnYri31NkzG-88" target="ouW_fzpy-MnYri31NkzG-79" edge="1">
          <mxGeometry relative="1" as="geometry">
            <Array as="points">
              <mxPoint x="1312.25" y="55" />
            </Array>
          </mxGeometry>
        </mxCell>
        <mxCell id="ouW_fzpy-MnYri31NkzG-88" value="&lt;span&gt;全量文件检查失败(S_full_dump_finished_failed)&lt;/span&gt;" style="whiteSpace=wrap;html=1;" parent="1" vertex="1">
          <mxGeometry x="1262.75" y="165" width="120" height="60" as="geometry" />
        </mxCell>
        <mxCell id="ouW_fzpy-MnYri31NkzG-93" value="" style="edgeStyle=orthogonalEdgeStyle;rounded=0;orthogonalLoop=1;jettySize=auto;html=1;" parent="1" source="ouW_fzpy-MnYri31NkzG-90" target="ouW_fzpy-MnYri31NkzG-92" edge="1">
          <mxGeometry relative="1" as="geometry" />
        </mxCell>
        <mxCell id="ouW_fzpy-MnYri31NkzG-90" value="&lt;span&gt;全量文件检查成功(S_full_dump_finished_succeed)&lt;/span&gt;" style="whiteSpace=wrap;html=1;" parent="1" vertex="1">
          <mxGeometry x="942.75" y="165" width="120" height="60" as="geometry" />
        </mxCell>
        <mxCell id="ouW_fzpy-MnYri31NkzG-99" value="" style="edgeStyle=orthogonalEdgeStyle;rounded=0;orthogonalLoop=1;jettySize=auto;html=1;" parent="1" source="ouW_fzpy-MnYri31NkzG-92" target="ouW_fzpy-MnYri31NkzG-98" edge="1">
          <mxGeometry relative="1" as="geometry" />
        </mxCell>
        <mxCell id="ouW_fzpy-MnYri31NkzG-92" value="&lt;span&gt;全量任务提交中(S_full_job_submitting)&lt;/span&gt;" style="whiteSpace=wrap;html=1;" parent="1" vertex="1">
          <mxGeometry x="942.75" y="305" width="120" height="60" as="geometry" />
        </mxCell>
        <mxCell id="ouW_fzpy-MnYri31NkzG-94" value="&lt;font color=&quot;#ff0000&quot;&gt;E_submit_full_job&lt;/font&gt;" style="text;html=1;align=center;verticalAlign=middle;resizable=0;points=[];autosize=1;" parent="1" vertex="1">
          <mxGeometry x="1017.25" y="250" width="110" height="20" as="geometry" />
        </mxCell>
        <mxCell id="ouW_fzpy-MnYri31NkzG-97" value="&lt;font color=&quot;#ff0000&quot;&gt;E_recheck_full_dump&lt;/font&gt;" style="text;html=1;align=center;verticalAlign=middle;resizable=0;points=[];autosize=1;" parent="1" vertex="1">
          <mxGeometry x="991.75" y="100" width="130" height="20" as="geometry" />
        </mxCell>
        <mxCell id="ouW_fzpy-MnYri31NkzG-101" value="" style="edgeStyle=orthogonalEdgeStyle;rounded=0;orthogonalLoop=1;jettySize=auto;html=1;" parent="1" source="ouW_fzpy-MnYri31NkzG-98" target="ouW_fzpy-MnYri31NkzG-100" edge="1">
          <mxGeometry relative="1" as="geometry" />
        </mxCell>
        <mxCell id="ouW_fzpy-MnYri31NkzG-103" value="" style="edgeStyle=orthogonalEdgeStyle;rounded=0;orthogonalLoop=1;jettySize=auto;html=1;" parent="1" source="ouW_fzpy-MnYri31NkzG-98" target="ouW_fzpy-MnYri31NkzG-102" edge="1">
          <mxGeometry relative="1" as="geometry" />
        </mxCell>
        <mxCell id="ouW_fzpy-MnYri31NkzG-98" value="是否成功?" style="rhombus;whiteSpace=wrap;html=1;" parent="1" vertex="1">
          <mxGeometry x="962.75" y="435" width="80" height="80" as="geometry" />
        </mxCell>
        <mxCell id="ouW_fzpy-MnYri31NkzG-108" style="edgeStyle=orthogonalEdgeStyle;rounded=0;orthogonalLoop=1;jettySize=auto;html=1;entryX=1;entryY=0.5;entryDx=0;entryDy=0;" parent="1" source="ouW_fzpy-MnYri31NkzG-100" target="ouW_fzpy-MnYri31NkzG-92" edge="1">
          <mxGeometry relative="1" as="geometry">
            <Array as="points">
              <mxPoint x="1172.25" y="335" />
            </Array>
          </mxGeometry>
        </mxCell>
        <mxCell id="ouW_fzpy-MnYri31NkzG-100" value="&lt;span&gt;全量任务提交失败(S_full_job_submit_failed)&lt;/span&gt;" style="whiteSpace=wrap;html=1;" parent="1" vertex="1">
          <mxGeometry x="1102.75" y="445" width="120" height="60" as="geometry" />
        </mxCell>
        <mxCell id="AyKXmRIpo1uoxJqNCRqN-23" style="edgeStyle=orthogonalEdgeStyle;rounded=0;orthogonalLoop=1;jettySize=auto;html=1;entryX=0.5;entryY=0;entryDx=0;entryDy=0;" parent="1" source="ouW_fzpy-MnYri31NkzG-102" target="ouW_fzpy-MnYri31NkzG-50" edge="1">
          <mxGeometry relative="1" as="geometry" />
        </mxCell>
        <mxCell id="ouW_fzpy-MnYri31NkzG-102" value="&lt;span&gt;全量任务提交成功(S_full_job_submit_succeed)&lt;/span&gt;" style="whiteSpace=wrap;html=1;" parent="1" vertex="1">
          <mxGeometry x="782.75" y="445" width="120" height="60" as="geometry" />
        </mxCell>
        <mxCell id="ouW_fzpy-MnYri31NkzG-104" value="否" style="text;html=1;align=center;verticalAlign=middle;resizable=0;points=[];autosize=1;" parent="1" vertex="1">
          <mxGeometry x="1047.25" y="440" width="30" height="20" as="geometry" />
        </mxCell>
        <mxCell id="ouW_fzpy-MnYri31NkzG-105" value="是" style="text;html=1;align=center;verticalAlign=middle;resizable=0;points=[];autosize=1;" parent="1" vertex="1">
          <mxGeometry x="927.25" y="440" width="30" height="20" as="geometry" />
        </mxCell>
        <mxCell id="ouW_fzpy-MnYri31NkzG-106" value="否" style="text;html=1;align=center;verticalAlign=middle;resizable=0;points=[];autosize=1;" parent="1" vertex="1">
          <mxGeometry x="1207.25" y="170" width="30" height="20" as="geometry" />
        </mxCell>
        <mxCell id="ouW_fzpy-MnYri31NkzG-107" value="是" style="text;html=1;align=center;verticalAlign=middle;resizable=0;points=[];autosize=1;" parent="1" vertex="1">
          <mxGeometry x="1087.25" y="160" width="30" height="20" as="geometry" />
        </mxCell>
        <mxCell id="ouW_fzpy-MnYri31NkzG-109" value="&lt;span style=&quot;color: rgb(255 , 0 , 0)&quot;&gt;E_resubmit_full_job&lt;/span&gt;" style="text;html=1;align=center;verticalAlign=middle;resizable=0;points=[];autosize=1;" parent="1" vertex="1">
          <mxGeometry x="1192.25" y="365" width="120" height="20" as="geometry" />
        </mxCell>
        <mxCell id="ouW_fzpy-MnYri31NkzG-122" value="" style="edgeStyle=orthogonalEdgeStyle;rounded=0;orthogonalLoop=1;jettySize=auto;html=1;" parent="1" target="ouW_fzpy-MnYri31NkzG-121" edge="1">
          <mxGeometry relative="1" as="geometry">
            <mxPoint x="717.75" y="1019" as="sourcePoint" />
          </mxGeometry>
        </mxCell>
        <mxCell id="ouW_fzpy-MnYri31NkzG-127" value="" style="edgeStyle=orthogonalEdgeStyle;rounded=0;orthogonalLoop=1;jettySize=auto;html=1;" parent="1" source="ouW_fzpy-MnYri31NkzG-121" target="ouW_fzpy-MnYri31NkzG-126" edge="1">
          <mxGeometry relative="1" as="geometry" />
        </mxCell>
        <mxCell id="ouW_fzpy-MnYri31NkzG-121" value="离线全量加载中(S_offline_full_index_loading)" style="whiteSpace=wrap;html=1;" parent="1" vertex="1">
          <mxGeometry x="657.75" y="1099" width="120" height="60" as="geometry" />
        </mxCell>
        <mxCell id="ouW_fzpy-MnYri31NkzG-125" value="&lt;span style=&quot;color: rgb(255 , 0 , 0)&quot;&gt;E_load_offline_full_index&lt;/span&gt;" style="text;html=1;align=center;verticalAlign=middle;resizable=0;points=[];autosize=1;" parent="1" vertex="1">
          <mxGeometry x="732.25" y="1054" width="150" height="20" as="geometry" />
        </mxCell>
        <mxCell id="ouW_fzpy-MnYri31NkzG-129" value="" style="edgeStyle=orthogonalEdgeStyle;rounded=0;orthogonalLoop=1;jettySize=auto;html=1;" parent="1" source="ouW_fzpy-MnYri31NkzG-126" target="ouW_fzpy-MnYri31NkzG-128" edge="1">
          <mxGeometry relative="1" as="geometry" />
        </mxCell>
        <mxCell id="ouW_fzpy-MnYri31NkzG-131" value="" style="edgeStyle=orthogonalEdgeStyle;rounded=0;orthogonalLoop=1;jettySize=auto;html=1;" parent="1" source="ouW_fzpy-MnYri31NkzG-126" target="ouW_fzpy-MnYri31NkzG-130" edge="1">
          <mxGeometry relative="1" as="geometry" />
        </mxCell>
        <mxCell id="ouW_fzpy-MnYri31NkzG-126" value="&lt;span&gt;是否成功?&lt;/span&gt;" style="rhombus;whiteSpace=wrap;html=1;" parent="1" vertex="1">
          <mxGeometry x="395" y="640" width="80" height="80" as="geometry" />
        </mxCell>
        <mxCell id="ouW_fzpy-MnYri31NkzG-137" style="edgeStyle=orthogonalEdgeStyle;rounded=0;orthogonalLoop=1;jettySize=auto;html=1;entryX=1;entryY=0.5;entryDx=0;entryDy=0;" parent="1" source="ouW_fzpy-MnYri31NkzG-128" target="ouW_fzpy-MnYri31NkzG-121" edge="1">
          <mxGeometry relative="1" as="geometry">
            <Array as="points">
              <mxPoint x="730" y="680" />
              <mxPoint x="730" y="880" />
              <mxPoint x="890" y="880" />
              <mxPoint x="890" y="1129" />
            </Array>
          </mxGeometry>
        </mxCell>
        <mxCell id="ouW_fzpy-MnYri31NkzG-128" value="&lt;span&gt;离线全量加载失败(S_load_offline_full_index_failed)&lt;/span&gt;" style="whiteSpace=wrap;html=1;" parent="1" vertex="1">
          <mxGeometry x="535" y="650" width="120" height="60" as="geometry" />
        </mxCell>
        <mxCell id="ouW_fzpy-MnYri31NkzG-136" value="" style="edgeStyle=orthogonalEdgeStyle;rounded=0;orthogonalLoop=1;jettySize=auto;html=1;" parent="1" source="ouW_fzpy-MnYri31NkzG-130" target="ouW_fzpy-MnYri31NkzG-135" edge="1">
          <mxGeometry relative="1" as="geometry" />
        </mxCell>
        <mxCell id="ouW_fzpy-MnYri31NkzG-130" value="离线全量加载成功(S_load_offline_full_index_succeed)" style="whiteSpace=wrap;html=1;" parent="1" vertex="1">
          <mxGeometry x="215" y="650" width="120" height="60" as="geometry" />
        </mxCell>
        <mxCell id="ouW_fzpy-MnYri31NkzG-132" value="否" style="text;html=1;align=center;verticalAlign=middle;resizable=0;points=[];autosize=1;" parent="1" vertex="1">
          <mxGeometry x="489.5" y="645" width="30" height="20" as="geometry" />
        </mxCell>
        <mxCell id="ouW_fzpy-MnYri31NkzG-134" value="是" style="text;html=1;align=center;verticalAlign=middle;resizable=0;points=[];autosize=1;" parent="1" vertex="1">
          <mxGeometry x="369.5" y="645" width="30" height="20" as="geometry" />
        </mxCell>
        <mxCell id="ouW_fzpy-MnYri31NkzG-141" value="" style="edgeStyle=orthogonalEdgeStyle;rounded=0;orthogonalLoop=1;jettySize=auto;html=1;" parent="1" source="ouW_fzpy-MnYri31NkzG-135" target="ouW_fzpy-MnYri31NkzG-140" edge="1">
          <mxGeometry relative="1" as="geometry" />
        </mxCell>
        <mxCell id="ouW_fzpy-MnYri31NkzG-135" value="全量同步成功(S_full_index_succeed)" style="whiteSpace=wrap;html=1;" parent="1" vertex="1">
          <mxGeometry x="215" y="790" width="120" height="60" as="geometry" />
        </mxCell>
        <mxCell id="ouW_fzpy-MnYri31NkzG-139" value="&lt;span style=&quot;color: rgb(255 , 0 , 0)&quot;&gt;E_sync_full_index&lt;/span&gt;" style="text;html=1;align=center;verticalAlign=middle;resizable=0;points=[];autosize=1;" parent="1" vertex="1">
          <mxGeometry x="299.5" y="745" width="110" height="20" as="geometry" />
        </mxCell>
        <mxCell id="ouW_fzpy-MnYri31NkzG-143" value="" style="edgeStyle=orthogonalEdgeStyle;rounded=0;orthogonalLoop=1;jettySize=auto;html=1;" parent="1" source="ouW_fzpy-MnYri31NkzG-140" target="ouW_fzpy-MnYri31NkzG-142" edge="1">
          <mxGeometry relative="1" as="geometry">
            <Array as="points">
              <mxPoint x="360" y="960" />
            </Array>
          </mxGeometry>
        </mxCell>
        <mxCell id="ouW_fzpy-MnYri31NkzG-145" value="" style="edgeStyle=orthogonalEdgeStyle;rounded=0;orthogonalLoop=1;jettySize=auto;html=1;" parent="1" source="ouW_fzpy-MnYri31NkzG-140" target="ouW_fzpy-MnYri31NkzG-144" edge="1">
          <mxGeometry relative="1" as="geometry" />
        </mxCell>
        <mxCell id="ouW_fzpy-MnYri31NkzG-140" value="&lt;span&gt;是否实时?&lt;/span&gt;" style="rhombus;whiteSpace=wrap;html=1;" parent="1" vertex="1">
          <mxGeometry x="235" y="920" width="80" height="80" as="geometry" />
        </mxCell>
        <mxCell id="ouW_fzpy-MnYri31NkzG-142" value="&lt;span&gt;索引同步成功(S_index_succeed)&lt;/span&gt;" style="whiteSpace=wrap;html=1;" parent="1" vertex="1">
          <mxGeometry x="299.5" y="1099" width="120" height="60" as="geometry" />
        </mxCell>
        <mxCell id="hm9SwE2YdJC81VSYCX4C-3" style="edgeStyle=orthogonalEdgeStyle;rounded=0;orthogonalLoop=1;jettySize=auto;html=1;entryX=0.5;entryY=0;entryDx=0;entryDy=0;" parent="1" source="ouW_fzpy-MnYri31NkzG-144" target="ouW_fzpy-MnYri31NkzG-148" edge="1">
          <mxGeometry relative="1" as="geometry">
            <mxPoint x="-10" y="650" as="targetPoint" />
            <Array as="points">
              <mxPoint x="115" y="560" />
              <mxPoint x="-55" y="560" />
            </Array>
          </mxGeometry>
        </mxCell>
        <mxCell id="ouW_fzpy-MnYri31NkzG-144" value="增量任务提交中(S_delta_job_submitting)" style="whiteSpace=wrap;html=1;" parent="1" vertex="1">
          <mxGeometry x="67" y="900" width="120" height="60" as="geometry" />
        </mxCell>
        <mxCell id="ouW_fzpy-MnYri31NkzG-146" value="否" style="text;html=1;align=center;verticalAlign=middle;resizable=0;points=[];autosize=1;" parent="1" vertex="1">
          <mxGeometry x="319.5" y="925" width="30" height="20" as="geometry" />
        </mxCell>
        <mxCell id="ouW_fzpy-MnYri31NkzG-147" value="是" style="text;html=1;align=center;verticalAlign=middle;resizable=0;points=[];autosize=1;" parent="1" vertex="1">
          <mxGeometry x="199.5" y="925" width="30" height="20" as="geometry" />
        </mxCell>
        <mxCell id="ouW_fzpy-MnYri31NkzG-153" value="" style="edgeStyle=orthogonalEdgeStyle;rounded=0;orthogonalLoop=1;jettySize=auto;html=1;" parent="1" source="ouW_fzpy-MnYri31NkzG-148" target="ouW_fzpy-MnYri31NkzG-152" edge="1">
          <mxGeometry relative="1" as="geometry" />
        </mxCell>
        <mxCell id="hm9SwE2YdJC81VSYCX4C-6" style="edgeStyle=orthogonalEdgeStyle;rounded=0;orthogonalLoop=1;jettySize=auto;html=1;entryX=0.5;entryY=0;entryDx=0;entryDy=0;" parent="1" source="ouW_fzpy-MnYri31NkzG-148" target="ouW_fzpy-MnYri31NkzG-167" edge="1">
          <mxGeometry relative="1" as="geometry" />
        </mxCell>
        <mxCell id="6RzqKl87mNj6lMHZYjic-2" style="edgeStyle=orthogonalEdgeStyle;rounded=0;orthogonalLoop=1;jettySize=auto;html=1;entryX=0.25;entryY=0;entryDx=0;entryDy=0;" edge="1" parent="1" source="ouW_fzpy-MnYri31NkzG-148" target="ouW_fzpy-MnYri31NkzG-150">
          <mxGeometry relative="1" as="geometry" />
        </mxCell>
        <mxCell id="ouW_fzpy-MnYri31NkzG-148" value="&lt;span&gt;是否成功?&lt;/span&gt;" style="rhombus;whiteSpace=wrap;html=1;" parent="1" vertex="1">
          <mxGeometry x="-95.5" y="609" width="80" height="80" as="geometry" />
        </mxCell>
        <mxCell id="6RzqKl87mNj6lMHZYjic-5" style="edgeStyle=orthogonalEdgeStyle;rounded=0;orthogonalLoop=1;jettySize=auto;html=1;entryX=0.75;entryY=1;entryDx=0;entryDy=0;" edge="1" parent="1" source="ouW_fzpy-MnYri31NkzG-150" target="ouW_fzpy-MnYri31NkzG-144">
          <mxGeometry relative="1" as="geometry">
            <Array as="points">
              <mxPoint x="157" y="1150" />
            </Array>
          </mxGeometry>
        </mxCell>
        <mxCell id="ouW_fzpy-MnYri31NkzG-150" value="&lt;span&gt;增量任务提交失败(S_submit_delta_job_failed)&lt;/span&gt;" style="whiteSpace=wrap;html=1;" parent="1" vertex="1">
          <mxGeometry y="1120" width="120" height="60" as="geometry" />
        </mxCell>
        <mxCell id="ouW_fzpy-MnYri31NkzG-163" value="" style="edgeStyle=orthogonalEdgeStyle;rounded=0;orthogonalLoop=1;jettySize=auto;html=1;" parent="1" source="ouW_fzpy-MnYri31NkzG-152" target="ouW_fzpy-MnYri31NkzG-162" edge="1">
          <mxGeometry relative="1" as="geometry" />
        </mxCell>
        <mxCell id="ouW_fzpy-MnYri31NkzG-152" value="&lt;span&gt;增量任务提交成功(S_submit_delta_job_succeed)&lt;/span&gt;" style="whiteSpace=wrap;html=1;" parent="1" vertex="1">
          <mxGeometry x="-275.5" y="619" width="120" height="60" as="geometry" />
        </mxCell>
        <mxCell id="ouW_fzpy-MnYri31NkzG-154" value="否" style="text;html=1;align=center;verticalAlign=middle;resizable=0;points=[];autosize=1;" parent="1" vertex="1">
          <mxGeometry x="-11" y="614" width="30" height="20" as="geometry" />
        </mxCell>
        <mxCell id="ouW_fzpy-MnYri31NkzG-155" value="是" style="text;html=1;align=center;verticalAlign=middle;resizable=0;points=[];autosize=1;" parent="1" vertex="1">
          <mxGeometry x="-141" y="624" width="30" height="20" as="geometry" />
        </mxCell>
        <mxCell id="ouW_fzpy-MnYri31NkzG-160" value="&lt;span style=&quot;color: rgb(255 , 0 , 0)&quot;&gt;E_resubmit_delta_job&lt;/span&gt;" style="text;html=1;align=center;verticalAlign=middle;resizable=0;points=[];autosize=1;" parent="1" vertex="1">
          <mxGeometry x="104.5" y="1054" width="130" height="20" as="geometry" />
        </mxCell>
        <mxCell id="ouW_fzpy-MnYri31NkzG-161" value="&lt;span style=&quot;color: rgb(255 , 0 , 0)&quot;&gt;E_submit_delta_job&lt;/span&gt;" style="text;html=1;align=center;verticalAlign=middle;resizable=0;points=[];autosize=1;" parent="1" vertex="1">
          <mxGeometry x="-15.5" y="980" width="120" height="20" as="geometry" />
        </mxCell>
        <mxCell id="ouW_fzpy-MnYri31NkzG-166" value="" style="edgeStyle=orthogonalEdgeStyle;rounded=0;orthogonalLoop=1;jettySize=auto;html=1;" parent="1" source="ouW_fzpy-MnYri31NkzG-162" target="ouW_fzpy-MnYri31NkzG-165" edge="1">
          <mxGeometry relative="1" as="geometry" />
        </mxCell>
        <mxCell id="ouW_fzpy-MnYri31NkzG-179" value="" style="edgeStyle=orthogonalEdgeStyle;orthogonalLoop=1;jettySize=auto;html=1;rounded=0;dashed=1;" parent="1" source="ouW_fzpy-MnYri31NkzG-162" target="ouW_fzpy-MnYri31NkzG-178" edge="1">
          <mxGeometry relative="1" as="geometry">
            <Array as="points">
              <mxPoint x="-215" y="849" />
              <mxPoint x="-555" y="849" />
            </Array>
          </mxGeometry>
        </mxCell>
        <mxCell id="ouW_fzpy-MnYri31NkzG-162" value="&lt;span&gt;增量同步中(S_delta_index_syncing)&lt;/span&gt;" style="whiteSpace=wrap;html=1;" parent="1" vertex="1">
          <mxGeometry x="-275.5" y="759" width="120" height="60" as="geometry" />
        </mxCell>
        <mxCell id="ouW_fzpy-MnYri31NkzG-164" value="&lt;span style=&quot;color: rgb(255 , 0 , 0)&quot;&gt;E_sync_delta_index&lt;/span&gt;" style="text;html=1;align=center;verticalAlign=middle;resizable=0;points=[];autosize=1;" parent="1" vertex="1">
          <mxGeometry x="-200.5" y="709" width="120" height="20" as="geometry" />
        </mxCell>
        <mxCell id="ouW_fzpy-MnYri31NkzG-168" value="" style="edgeStyle=orthogonalEdgeStyle;rounded=0;orthogonalLoop=1;jettySize=auto;html=1;" parent="1" source="ouW_fzpy-MnYri31NkzG-165" target="ouW_fzpy-MnYri31NkzG-167" edge="1">
          <mxGeometry relative="1" as="geometry" />
        </mxCell>
        <mxCell id="ouW_fzpy-MnYri31NkzG-170" value="" style="edgeStyle=orthogonalEdgeStyle;rounded=0;orthogonalLoop=1;jettySize=auto;html=1;" parent="1" source="ouW_fzpy-MnYri31NkzG-165" target="ouW_fzpy-MnYri31NkzG-169" edge="1">
          <mxGeometry relative="1" as="geometry" />
        </mxCell>
        <mxCell id="ouW_fzpy-MnYri31NkzG-165" value="&lt;span&gt;是否成功?&lt;/span&gt;" style="rhombus;whiteSpace=wrap;html=1;" parent="1" vertex="1">
          <mxGeometry x="-255.5" y="889" width="80" height="80" as="geometry" />
        </mxCell>
        <mxCell id="hm9SwE2YdJC81VSYCX4C-7" style="edgeStyle=orthogonalEdgeStyle;rounded=0;orthogonalLoop=1;jettySize=auto;html=1;entryX=0;entryY=0.5;entryDx=0;entryDy=0;" parent="1" source="ouW_fzpy-MnYri31NkzG-167" target="ouW_fzpy-MnYri31NkzG-144" edge="1">
          <mxGeometry relative="1" as="geometry" />
        </mxCell>
        <mxCell id="ouW_fzpy-MnYri31NkzG-167" value="&lt;span&gt;增量同步失败(S_sync_delta_index_failed)&lt;/span&gt;" style="whiteSpace=wrap;html=1;" parent="1" vertex="1">
          <mxGeometry x="-115.5" y="899" width="120" height="60" as="geometry" />
        </mxCell>
        <mxCell id="ouW_fzpy-MnYri31NkzG-176" value="" style="edgeStyle=orthogonalEdgeStyle;rounded=0;orthogonalLoop=1;jettySize=auto;html=1;" parent="1" source="ouW_fzpy-MnYri31NkzG-169" target="ouW_fzpy-MnYri31NkzG-175" edge="1">
          <mxGeometry relative="1" as="geometry" />
        </mxCell>
        <mxCell id="ouW_fzpy-MnYri31NkzG-180" style="edgeStyle=orthogonalEdgeStyle;rounded=0;orthogonalLoop=1;jettySize=auto;html=1;entryX=1;entryY=0.5;entryDx=0;entryDy=0;dashed=1;" parent="1" source="ouW_fzpy-MnYri31NkzG-169" target="ouW_fzpy-MnYri31NkzG-178" edge="1">
          <mxGeometry relative="1" as="geometry" />
        </mxCell>
        <mxCell id="ouW_fzpy-MnYri31NkzG-169" value="&lt;span&gt;增量同步成功(S_sync_delta_index_succeed)&lt;/span&gt;" style="whiteSpace=wrap;html=1;" parent="1" vertex="1">
          <mxGeometry x="-435.5" y="899" width="120" height="60" as="geometry" />
        </mxCell>
        <mxCell id="ouW_fzpy-MnYri31NkzG-171" value="否" style="text;html=1;align=center;verticalAlign=middle;resizable=0;points=[];autosize=1;" parent="1" vertex="1">
          <mxGeometry x="-170.5" y="899" width="30" height="20" as="geometry" />
        </mxCell>
        <mxCell id="ouW_fzpy-MnYri31NkzG-172" value="是" style="text;html=1;align=center;verticalAlign=middle;resizable=0;points=[];autosize=1;" parent="1" vertex="1">
          <mxGeometry x="-300.5" y="899" width="30" height="20" as="geometry" />
        </mxCell>
        <mxCell id="ouW_fzpy-MnYri31NkzG-175" value="&lt;span&gt;索引同步成功(S_index_succeed)&lt;/span&gt;" style="whiteSpace=wrap;html=1;" parent="1" vertex="1">
          <mxGeometry x="-435.5" y="1039" width="120" height="60" as="geometry" />
        </mxCell>
        <mxCell id="ouW_fzpy-MnYri31NkzG-177" value="&lt;span style=&quot;color: rgb(255 , 0 , 0)&quot;&gt;E_finish_sync_index&lt;/span&gt;" style="text;html=1;align=center;verticalAlign=middle;resizable=0;points=[];autosize=1;" parent="1" vertex="1">
          <mxGeometry x="-370.5" y="989" width="120" height="20" as="geometry" />
        </mxCell>
        <mxCell id="ouW_fzpy-MnYri31NkzG-178" value="&lt;span&gt;增量同步暂停(S_sync_delta_index_pause)&lt;/span&gt;" style="whiteSpace=wrap;html=1;" parent="1" vertex="1">
          <mxGeometry x="-614.5" y="760" width="120" height="60" as="geometry" />
        </mxCell>
        <mxCell id="ouW_fzpy-MnYri31NkzG-184" value="" style="endArrow=classic;html=1;" parent="1" edge="1">
          <mxGeometry width="50" height="50" relative="1" as="geometry">
            <mxPoint x="-555.5" y="650" as="sourcePoint" />
            <mxPoint x="-555.1700000000001" y="760" as="targetPoint" />
          </mxGeometry>
        </mxCell>
        <mxCell id="ouW_fzpy-MnYri31NkzG-185" value="&lt;span style=&quot;color: rgb(255 , 0 , 0)&quot;&gt;E_pause_delta_index&lt;/span&gt;" style="text;html=1;align=center;verticalAlign=middle;resizable=0;points=[];autosize=1;" parent="1" vertex="1">
          <mxGeometry x="-700" y="640" width="130" height="20" as="geometry" />
        </mxCell>
        <mxCell id="ouW_fzpy-MnYri31NkzG-189" value="&lt;font color=&quot;#ff0000&quot;&gt;E_deploy_dts_full&lt;/font&gt;" style="text;html=1;align=center;verticalAlign=middle;resizable=0;points=[];autosize=1;" parent="1" vertex="1">
          <mxGeometry x="-293" y="90" width="110" height="20" as="geometry" />
        </mxCell>
        <mxCell id="AyKXmRIpo1uoxJqNCRqN-22" value="&lt;span style=&quot;color: rgb(255 , 0 , 0)&quot;&gt;E_create_collection_metadata&lt;/span&gt;" style="text;html=1;align=center;verticalAlign=middle;resizable=0;points=[];autosize=1;" parent="1" vertex="1">
          <mxGeometry x="844.5" y="570" width="180" height="20" as="geometry" />
        </mxCell>
        <mxCell id="hm9SwE2YdJC81VSYCX4C-8" value="是" style="text;html=1;align=center;verticalAlign=middle;resizable=0;points=[];autosize=1;strokeColor=none;fillColor=none;" parent="1" vertex="1">
          <mxGeometry x="365" y="-140" width="30" height="20" as="geometry" />
        </mxCell>
        <mxCell id="hm9SwE2YdJC81VSYCX4C-9" value="否" style="text;html=1;align=center;verticalAlign=middle;resizable=0;points=[];autosize=1;strokeColor=none;fillColor=none;" parent="1" vertex="1">
          <mxGeometry x="455" y="-140" width="30" height="20" as="geometry" />
        </mxCell>
        <mxCell id="hm9SwE2YdJC81VSYCX4C-10" value="是" style="text;html=1;align=center;verticalAlign=middle;resizable=0;points=[];autosize=1;strokeColor=none;fillColor=none;" parent="1" vertex="1">
          <mxGeometry x="-78" width="30" height="20" as="geometry" />
        </mxCell>
        <mxCell id="hm9SwE2YdJC81VSYCX4C-11" value="否" style="text;html=1;align=center;verticalAlign=middle;resizable=0;points=[];autosize=1;strokeColor=none;fillColor=none;" parent="1" vertex="1">
          <mxGeometry x="35" width="30" height="20" as="geometry" />
        </mxCell>
        <mxCell id="hm9SwE2YdJC81VSYCX4C-12" value="是" style="text;html=1;align=center;verticalAlign=middle;resizable=0;points=[];autosize=1;strokeColor=none;fillColor=none;" parent="1" vertex="1">
          <mxGeometry x="-245" y="270" width="30" height="20" as="geometry" />
        </mxCell>
        <mxCell id="hm9SwE2YdJC81VSYCX4C-13" value="否" style="text;html=1;align=center;verticalAlign=middle;resizable=0;points=[];autosize=1;strokeColor=none;fillColor=none;" parent="1" vertex="1">
          <mxGeometry x="-115" y="270" width="30" height="20" as="geometry" />
        </mxCell>
      </root>
    </mxGraphModel>
  </diagram>
</mxfile>
